<?xml version="1.0" encoding="UTF-8" standalone="no"?>
<!DOCTYPE svg PUBLIC "-//W3C//DTD SVG 1.1//EN" "http://www.w3.org/Graphics/SVG/1.1/DTD/svg11.dtd">
<svg width="100%" height="100%" viewBox="0 0 1493 149" version="1.1" xmlns="http://www.w3.org/2000/svg" xmlns:xlink="http://www.w3.org/1999/xlink" xml:space="preserve" xmlns:serif="http://www.serif.com/" style="fill-rule:evenodd;clip-rule:evenodd;stroke-linejoin:round;stroke-miterlimit:2;">
    <g transform="matrix(1,0,0,1,-253.762799,-488.126372)">
        <g id="bvlgari" transform="matrix(7.977435,0,0,7.977435,231.154747,-206.349241)">
            <path d="M189.896,103.881L189.921,104.445L183.894,104.445L183.894,103.881C185.519,103.881 185.345,103.412 185.345,101.371L185.345,90.13C185.345,89.269 185.37,88.654 185.273,88.384C185.076,87.67 184.781,87.646 183.771,87.597L183.771,87.08L189.873,87.055L189.873,87.597C188.273,87.597 188.322,88.113 188.322,90.13L188.322,101.371C188.322,103.24 188.248,103.881 189.896,103.881ZM171.867,104.643C165.422,104.643 165.865,103.684 164.857,102.11C163.652,100.241 162.619,97.585 160.38,97.585C159.788,97.608 157.821,97.585 157.452,97.585C156.419,97.585 155.829,97.634 155.165,97.585L155.165,102.7C155.188,103.905 155.78,104.005 156.788,104.005L156.788,104.644L150.64,104.644L150.64,104.005C151.476,104.028 152.163,104.054 152.163,103.118L152.163,89.418C152.163,88.164 151.722,87.844 150.64,87.844L150.64,87.302L158.509,87.302C161.068,87.302 162.937,87.228 164.142,87.499C166.872,88.114 168.546,89.516 168.57,91.779C168.57,94.018 167.439,95.986 163.111,96.798C165.963,97.116 166.259,98.372 167.365,100.29C168.547,102.405 169.062,104.054 171.818,104.028C171.818,104.176 171.867,104.496 171.867,104.643ZM155.166,95.862C157.404,95.837 160.676,96.01 162.668,95.493C163.799,95.075 165.299,94.435 165.299,92C165.299,90.278 164.44,89.713 163.406,89.221C161.463,88.286 157.722,88.606 155.166,88.606L155.166,95.862ZM133.865,100.215L123.533,100.215L122.525,101.986C122.156,102.65 121.91,103.093 121.91,103.363C121.935,104.224 122.353,104.299 123.312,104.273L123.287,104.839L117.949,104.839L117.949,104.347C119.131,104.322 119.328,103.929 119.672,103.339C119.967,102.773 120.213,102.355 120.852,101.124L128.01,87.498L130.274,87.498L137.825,101.273C139.179,103.757 139.104,104.175 140.63,104.175L140.63,104.839L134.234,104.839L134.234,104.224C135.685,104.15 135.908,103.658 135.095,102.306L133.865,100.215ZM132.955,98.271L128.6,90.105L124.469,98.271L132.955,98.271ZM110.547,97.387C108.776,97.412 108.652,97.485 108.701,99.207L108.75,101.691C107.988,103.363 105.479,104.496 103.586,104.986C102.076,105.385 100.522,105.591 98.961,105.601C95.025,105.601 91.828,104.716 89.515,102.747C87.597,101.124 86.416,99.058 86.416,96.796C86.416,94.041 87.596,91.827 89.982,90.006C92.343,88.186 95.27,87.251 98.886,87.276C100.263,87.3 101.74,87.448 103.191,87.792C104.519,88.112 105.921,88.604 107.052,89.292L107.962,93.154L107.398,93.376C106.832,92.195 105.306,90.596 103.88,89.81C102.624,89.096 100.903,88.654 99.058,88.629C96.919,88.605 94.754,89.367 93.475,90.253C91.507,91.606 89.834,93.771 89.834,96.402C89.834,99.132 91.409,101.322 93.032,102.381C94.631,103.389 96.55,104.076 99.009,104.053C100.486,104.028 102.06,103.658 102.921,103.315C103.855,102.946 105.159,102.356 105.724,101.274L105.749,99.774C105.749,99.256 105.847,97.928 105.454,97.633C105.036,97.362 104.567,97.387 103.88,97.387L103.88,96.797L110.546,96.797L110.546,97.387L110.547,97.387ZM68.583,87.941L68.583,88.482C67.821,88.507 67.673,88.457 67.378,88.703C67.181,88.9 67.034,89.146 67.034,89.958L67.034,103.363L75.176,103.363C77.316,103.363 78.669,102.429 79.259,101.47L79.824,101.691L78.029,105.283L62.557,105.283L62.557,104.717C63.615,104.692 64.057,104.496 64.057,103.363L64.057,90.72C64.057,89.761 64.057,89.22 63.811,88.9C63.565,88.555 63.319,88.482 62.458,88.482L62.458,87.941L68.583,87.941ZM36.558,88.089L36.558,88.729C35.574,88.729 34.861,88.95 35.328,90.057C35.5,90.524 35.845,91.115 36.263,91.902L41.994,102.7C42.707,100.979 48.463,90.205 48.586,89.467C48.734,88.532 47.282,88.729 47.233,88.729L47.233,88.114L52.398,88.09L52.398,88.73C52.004,88.73 51.39,88.631 51.169,88.902C50.8,89.369 49.865,91.337 48.586,93.797C46.692,97.511 44.232,102.431 42.707,105.457L40.223,105.457L32.844,91.485C32.254,90.329 31.762,89.198 31.368,88.952C31.024,88.755 30.778,88.731 30.187,88.731L30.187,88.091L36.558,88.091L36.558,88.089ZM17.125,96.256C18.626,96.501 19.905,96.846 20.716,97.289C21.626,97.805 22.634,98.518 22.634,100.855C22.659,102.773 21.454,103.904 20.789,104.273C19.067,105.627 14.861,105.701 12.303,105.701L2.958,105.701L2.958,105.109C3.745,105.134 3.967,105.06 4.287,104.691C4.508,104.421 4.434,103.412 4.434,102.429L4.434,90.844C4.434,89.761 4.385,89.442 4.04,89.147C3.671,88.852 3.45,88.876 2.834,88.876L2.859,88.31C8.91,88.335 11.345,88.261 15.01,88.286C17.47,88.409 20.667,89.344 20.667,92.295C20.667,93.426 20.151,94.558 19.364,95.124C18.602,95.714 18.331,95.837 17.125,96.256ZM7.36,95.788L11.419,95.788C13.116,95.788 15.403,95.739 16.683,94.706C17.224,94.288 17.741,93.181 17.741,92.541C17.741,91.508 17.495,91.016 16.437,90.328C15.355,89.639 13.092,89.762 11.148,89.762L7.36,89.762L7.36,95.788ZM7.36,103.781L12.255,103.781C15.773,103.781 19.339,103.586 19.339,100.732C19.339,99.699 18.699,98.837 18.035,98.345C16.608,97.288 14.493,97.312 11.394,97.337C10.065,97.36 8.688,97.337 7.36,97.337L7.36,103.781Z" style="fill:white;"/>
        </g>
    </g>
</svg>
