<?xml version="1.0" encoding="UTF-8" standalone="no"?>
<!DOCTYPE svg PUBLIC "-//W3C//DTD SVG 1.1//EN" "http://www.w3.org/Graphics/SVG/1.1/DTD/svg11.dtd">
<svg width="100%" height="100%" viewBox="0 0 1175 282" version="1.1" xmlns="http://www.w3.org/2000/svg" xmlns:xlink="http://www.w3.org/1999/xlink" xml:space="preserve" xmlns:serif="http://www.serif.com/" style="fill-rule:evenodd;clip-rule:evenodd;stroke-linejoin:round;stroke-miterlimit:2;">
    <g transform="matrix(1,0,0,1,-412.672079,-421.518442)">
        <g id="lexus" transform="matrix(3.174617,0,0,3.174617,412.672079,421.518442)">
            <path d="M106.52,80.869L114.801,80.869L114.801,79.042L106.52,79.042L106.52,74.294L115.163,74.294L115.163,72.468L104.167,72.468L104.167,88.506L115.372,88.506L115.372,86.68L106.52,86.68L106.52,80.869ZM132.122,72.468L129.594,72.468L125.25,78.43L120.928,72.468L118.4,72.468L123.816,79.945L117.608,88.506L120.147,88.506L125.075,81.685L129.967,88.506L132.494,88.506L126.531,80.17L132.122,72.468ZM140.892,72.468L135.58,72.468L135.58,88.506L137.933,88.506L137.933,82.061L140.891,82.061C142.84,82.061 144.313,81.657 145.311,80.847C146.309,80.037 146.808,78.842 146.808,77.259C146.808,75.691 146.309,74.5 145.311,73.687C144.314,72.875 142.841,72.468 140.892,72.468ZM143.431,79.494C142.833,80.016 141.987,80.278 140.892,80.278L137.934,80.278L137.934,74.252L140.892,74.252C141.987,74.252 142.833,74.514 143.431,75.036C144.029,75.558 144.328,76.3 144.328,77.26C144.328,78.226 144.029,78.971 143.431,79.494ZM152.318,80.869L160.6,80.869L160.6,79.042L152.318,79.042L152.318,74.294L160.961,74.294L160.961,72.468L149.966,72.468L149.966,88.506L161.171,88.506L161.171,86.68L152.318,86.68L152.318,80.869ZM174.758,81.997C174.28,81.481 173.789,81.144 173.284,80.987C174.255,80.729 174.994,80.267 175.503,79.601C176.011,78.935 176.266,78.097 176.266,77.087C176.266,75.54 175.777,74.384 174.798,73.617C173.82,72.85 172.336,72.468 170.349,72.468L165.037,72.468L165.037,88.506L167.39,88.506L167.39,81.728L169.953,81.728C170.885,81.728 171.62,81.904 172.16,82.254C172.7,82.605 173.257,83.317 173.831,84.392L176.056,88.506L178.583,88.506L176.195,84.123C175.714,83.221 175.235,82.512 174.758,81.997ZM170.349,79.945L167.391,79.945L167.391,74.252L170.349,74.252C171.482,74.252 172.339,74.49 172.917,74.967C173.495,75.443 173.785,76.15 173.785,77.088C173.785,78.026 173.495,78.736 172.917,79.221C172.339,79.703 171.482,79.945 170.349,79.945ZM181.612,72.468L183.965,72.468L183.965,88.506L181.612,88.506L181.612,72.468ZM191,80.869L199.282,80.869L199.282,79.042L191,79.042L191,74.294L199.643,74.294L199.643,72.468L188.647,72.468L188.647,88.506L199.853,88.506L199.853,86.68L191,86.68L191,80.869ZM214.599,85.885L206.888,72.468L203.72,72.468L203.72,88.506L206.002,88.506L206.002,75.089L213.713,88.506L216.881,88.506L216.881,72.468L214.599,72.468L214.599,85.885ZM229.053,72.178C226.421,72.178 224.347,72.921 222.833,74.407C221.319,75.892 220.562,77.925 220.562,80.503C220.562,83.074 221.319,85.103 222.833,86.589C224.347,88.074 226.42,88.818 229.053,88.818C230.078,88.818 231.051,88.689 231.97,88.431C232.893,88.172 233.774,87.781 234.585,87.271L234.585,85.004C233.837,85.658 232.98,86.174 232.052,86.529C231.137,86.869 230.169,87.04 229.193,87.034C227.205,87.034 225.683,86.473 224.627,85.352C223.57,84.232 223.043,82.615 223.043,80.502C223.043,78.382 223.571,76.762 224.627,75.641C225.683,74.521 227.205,73.96 229.193,73.96C230.202,73.96 231.155,74.128 232.052,74.465C232.979,74.82 233.837,75.337 234.585,75.99L234.585,73.702C233.782,73.195 232.909,72.81 231.993,72.558C231.035,72.3 230.046,72.172 229.053,72.178ZM240.573,80.869L248.854,80.869L248.854,79.042L240.573,79.042L240.573,74.294L249.216,74.294L249.216,72.468L238.22,72.468L238.22,88.506L249.425,88.506L249.425,86.68L240.573,86.68L240.573,80.869ZM265.359,72.468L258.719,88.506L261.2,88.506L262.784,84.392L270.623,84.392L272.207,88.506L274.653,88.506L268.024,72.468L265.359,72.468ZM263.495,82.587L266.686,74.606L269.888,82.587L263.495,82.587ZM285.137,83.382L280.698,72.468L277.193,72.468L277.193,88.506L279.477,88.506L279.477,74.423L283.959,85.423L286.325,85.423L290.809,74.423L290.809,88.506L293.104,88.506L293.104,72.468L289.597,72.468L285.137,83.382ZM302.259,72.468L295.62,88.506L298.099,88.506L299.683,84.392L307.523,84.392L309.107,88.506L311.553,88.506L304.924,72.468L302.259,72.468ZM300.396,82.587L303.587,74.606L306.789,82.587L300.396,82.587ZM326.753,74.123L326.753,72.468L313.092,72.468L313.092,74.294L323.817,74.294L312.822,86.852L312.822,88.506L327.021,88.506L327.021,86.68L315.758,86.68L326.753,74.123ZM330.434,72.468L332.787,72.468L332.787,88.506L330.434,88.506L330.434,72.468ZM348.348,85.885L340.637,72.468L337.469,72.468L337.469,88.506L339.752,88.506L339.752,75.089L347.463,88.506L350.631,88.506L350.631,72.468L348.348,72.468L348.348,85.885ZM363.327,81.911L367.171,81.911L367.171,86.219C366.618,86.51 366.026,86.718 365.413,86.836C364.761,86.969 364.019,87.035 363.186,87.035C361.06,87.035 359.461,86.487 358.394,85.391C357.327,84.295 356.792,82.666 356.792,80.503C356.792,78.333 357.326,76.7 358.394,75.605C359.462,74.51 361.06,73.961 363.186,73.961C364.266,73.961 365.295,74.133 366.274,74.477C367.253,74.821 368.176,75.332 369.046,76.013L369.046,73.703C368.184,73.202 367.241,72.822 366.221,72.564C365.201,72.306 364.122,72.177 362.99,72.177C360.27,72.177 358.146,72.909 356.613,74.373C355.078,75.838 354.311,77.881 354.311,80.502C354.311,83.116 355.078,85.155 356.613,86.619C358.146,88.084 360.27,88.816 362.99,88.816C364.231,88.816 365.4,88.664 366.495,88.359C367.561,88.068 368.574,87.614 369.5,87.011L369.5,80.125L363.327,80.125L363.327,81.911ZM370.015,41.536C370.015,36.135 365.216,31.705 359.356,31.705L328.973,31.705C329.373,28.008 332.569,24.912 335.801,24.912L366.55,24.912L366.452,18.482L333.837,18.482C323.508,18.482 315.248,27.044 315.014,37.005C314.983,37.704 315.447,38.137 316.215,38.137L353.226,37.999C355.124,38.266 356.591,39.764 356.591,41.533C356.591,43.528 354.792,45.129 352.592,45.129L311.883,45.129L311.883,18.509L299.889,18.509L299.889,45.196L277.834,45.196C271.872,45.196 270.641,41.564 270.641,38.232L270.641,18.344L250.752,18.344C248.786,19.677 246.887,21.144 244.855,22.375L233.062,29.637L217.737,18.444L171.362,18.444C165.266,18.444 160.568,20.044 157.105,22.774C150.875,27.706 148.876,32.901 148.943,35.235L157.071,35.235C153.506,37.901 151.107,41.095 149.842,44.796L123.189,44.796C118.392,44.796 115.293,41.4 115.293,38.1L115.293,18.21L103.5,18.21L103.5,38.865C103.5,46.294 110.564,51.423 121.889,51.423L211.304,51.423C213.169,50.159 214.936,48.827 216.868,47.66L228.994,40.297L244.385,51.293L261.91,51.293L238.754,33.868L250.65,26.108C253.182,24.441 255.848,23.043 258.446,21.512L258.446,39.035C258.446,46.431 260.344,51.561 275.236,51.561L359.356,51.363C365.851,51.459 370.015,46.964 370.015,41.536ZM208.94,44.727L165.298,44.727C165.431,41.331 169.062,37.9 172.36,37.9L199.81,37.9L199.81,31.07L164.964,31.07C164.565,29.071 168.296,25.14 171.16,25.14L202.509,25.14L202.509,21.473L222.798,36.034L208.94,44.727ZM67.125,3.322L65.155,6.145C79.031,12.729 84.766,21.344 84.766,33.399C84.854,36.633 84.001,40.132 81.883,43.366L41.133,43.366C38.693,43.366 38.339,40.603 39.222,39.044C42.715,32.826 46.614,26.845 50.894,21.14C55.01,15.641 59.066,10.496 63.33,5.116C64.476,3.617 63.712,2.176 61.419,1.706C56.656,0.705 51.688,-0 45.661,-0C12.232,-0 0,19.198 0,33.429C0,48.866 12.32,66.771 45.749,66.771C64.3,66.771 76.444,60.801 83.471,53.128L76.384,53.128C70.238,58.802 59.682,62.832 45.749,62.832C17.435,62.832 6.999,46.924 6.999,33.223C7.203,20.992 18.405,4.115 46.456,3.557C47.514,3.527 48.338,4.498 47.601,5.409C42.809,11.319 29.14,30.4 27.582,32.871C24.583,37.605 24.318,39.898 24.229,41.427C24.142,42.928 24.142,45.632 26.582,47.837C30.669,51.483 36.401,50.894 41.488,50.894L83.386,50.894C85.178,50.894 85.708,50.365 86.678,49.072C90.03,43.956 91.53,38.398 91.53,33.429C91.528,22.786 84.62,9.379 67.125,3.322Z" style="fill:white;fill-rule:nonzero;"/>
        </g>
    </g>
</svg>
