<?xml version="1.0" encoding="UTF-8" standalone="no"?>
<!DOCTYPE svg PUBLIC "-//W3C//DTD SVG 1.1//EN" "http://www.w3.org/Graphics/SVG/1.1/DTD/svg11.dtd">
<svg width="100%" height="100%" viewBox="0 0 1375 346" version="1.1" xmlns="http://www.w3.org/2000/svg" xmlns:xlink="http://www.w3.org/1999/xlink" xml:space="preserve" xmlns:serif="http://www.serif.com/" style="fill-rule:evenodd;clip-rule:evenodd;stroke-linejoin:round;stroke-miterlimit:2;">
    <g transform="matrix(1,0,0,1,-312.862452,-389.925694)">
        <g id="mercedes" transform="matrix(0.667683,0,0,0.667683,149.267331,44.044224)">
            <g transform="matrix(6.0616,0,0,6.0616,804.927361,-105.156699)">
                <path d="M163.92,146.99L172.568,146.99L172.568,148.992L163.92,148.992L163.92,146.99ZM20.076,134.848L19.303,154.942L19.303,155.291C19.303,156.992 19.804,157.343 22.516,157.535L22.516,158.466C20.542,158.314 19.765,158.275 18.683,158.275C17.598,158.275 16.824,158.314 14.811,158.466L14.811,157.535C17.52,157.343 17.909,157.032 17.986,154.942L18.799,135.934L18.799,135.705C18.799,133.921 18.256,133.535 15.587,133.381L15.587,132.411C17.094,132.528 17.675,132.567 18.76,132.567C19.989,132.578 21.218,132.514 22.439,132.376L29.637,151.962L36.952,132.376C38.697,132.528 39.509,132.567 40.671,132.567C41.635,132.567 42.257,132.528 43.727,132.411L43.727,133.381C41.096,133.535 40.512,133.921 40.512,135.663L40.512,135.934L40.939,154.942C40.981,157.032 41.327,157.34 44.115,157.535L44.115,158.466C41.677,158.234 40.746,158.154 39.276,158.154C37.803,158.154 36.874,158.23 34.436,158.466L34.436,157.535C37.067,157.382 37.648,156.954 37.648,155.138L37.648,154.947L37.303,134.892L30.913,152.156L30.45,153.435L29.908,154.865L29.402,156.341L28.977,157.617L28.396,157.617L27.972,156.379L27.428,154.865L26.887,153.357L26.422,152.003L20.076,134.848ZM49.143,147.352C49.531,142.901 51,140.62 53.478,140.62C55.995,140.62 57.272,142.787 57.503,147.352L49.143,147.352ZM54.177,157.494C50.654,157.494 49.103,154.784 49.068,148.745L60.604,148.745C60.525,142.784 58.086,139.609 53.517,139.609C48.875,139.609 45.97,143.365 45.97,149.327C45.97,155.288 48.876,158.771 53.867,158.771C57.661,158.771 60.14,156.408 60.64,152.422L59.09,152.422C58.626,155.712 56.923,157.494 54.177,157.494ZM62.907,141.041L62.907,140.346C65.112,140.153 66.43,139.921 68.016,139.455C68.21,140.889 68.287,141.506 68.364,142.669L68.364,143.096C69.218,140.889 70.879,139.61 72.894,139.61C74.828,139.61 76.262,140.889 76.262,142.749C76.262,143.872 75.604,144.606 74.636,144.606C73.746,144.606 73.05,144.063 73.05,143.291C73.05,143.214 73.09,143.062 73.125,142.901L73.202,142.516L73.202,142.164C73.202,141.622 72.737,141.236 72.04,141.236C70.03,141.236 68.753,143.674 68.753,147.507L68.753,155.596C68.753,157.264 69.138,157.573 71.501,157.688L71.501,158.463C69.369,158.272 68.557,158.229 67.202,158.229C65.809,158.229 64.997,158.272 62.869,158.463L62.869,157.688C65.228,157.573 65.654,157.264 65.654,155.596L65.654,142.942C65.617,141.276 65.421,141.085 63.411,141.044L62.907,141.041ZM91.071,139.264L91.071,145.653L90.217,145.653C89.52,142.282 88.089,140.657 85.729,140.657C82.823,140.657 81.122,143.795 81.122,149.33C81.122,154.748 82.631,157.497 85.611,157.497C88.011,157.497 89.443,155.795 89.908,152.39L91.494,152.39C90.99,156.533 88.784,158.777 85.302,158.777C80.811,158.777 77.755,154.982 77.755,149.333C77.755,143.562 80.85,139.615 85.418,139.615C87.083,139.615 88.128,140.042 89.369,141.242L90.411,139.267L91.072,139.267L91.072,139.264L91.071,139.264ZM97.427,147.352C97.814,142.901 99.283,140.62 101.762,140.62C104.278,140.62 105.555,142.787 105.785,147.352L97.427,147.352ZM102.459,157.494C98.936,157.494 97.389,154.784 97.35,148.745L108.884,148.745C108.807,142.784 106.366,139.609 101.802,139.609C97.154,139.609 94.25,143.365 94.25,149.327C94.25,155.288 97.153,158.771 102.15,158.771C105.943,158.771 108.421,156.408 108.922,152.422L107.374,152.422C106.91,155.712 105.207,157.494 102.459,157.494ZM119.604,157.729C116.817,157.729 115.347,154.823 115.347,149.291C115.347,143.681 116.701,140.931 119.489,140.931C122.355,140.931 123.826,143.872 123.826,149.566C123.825,154.941 122.392,157.729 119.604,157.729ZM126.881,154.436L126.881,132.088C124.946,132.606 123.206,132.913 121.039,133.145L121.039,133.805C123.477,133.805 123.787,134.076 123.787,136.088L123.787,142.861C122.355,140.54 121.232,139.841 119.141,139.841C115,139.841 112.095,143.75 112.095,149.324C112.095,154.899 115.035,158.805 119.257,158.805C121.463,158.805 122.973,157.799 124.056,155.633C124.21,157.104 124.21,157.258 124.599,158.727C126.184,158.223 126.844,158.069 129.128,157.799L129.708,157.723L129.708,157.065C127.114,156.988 126.881,156.797 126.881,154.436ZM134.35,147.352C134.737,142.901 136.207,140.62 138.686,140.62C141.202,140.62 142.477,142.787 142.709,147.352L134.35,147.352ZM139.383,157.494C135.858,157.494 134.313,154.784 134.272,148.745L145.807,148.745C145.729,142.784 143.291,139.609 138.725,139.609C134.077,139.609 131.175,143.365 131.175,149.327C131.175,155.288 134.077,158.771 139.073,158.771C142.866,158.771 145.343,156.408 145.844,152.422L144.295,152.422C143.834,155.712 142.128,157.494 139.383,157.494ZM149.094,158.811L149.094,152.344L149.946,152.307C150.641,155.831 152.268,157.535 154.979,157.535C157.26,157.535 158.965,156.024 158.965,154.054C158.965,152.738 158.231,151.849 156.331,150.995L154.861,150.335L153.081,149.523C150.252,148.208 149.363,147.123 149.363,144.877C149.363,141.818 151.761,139.731 155.17,139.731C156.68,139.731 157.805,140.079 159.119,140.965L159.775,139.379L160.472,139.379L160.472,145.379L159.58,145.379C159.229,142.281 157.954,140.813 155.517,140.813C153.466,140.813 151.875,142.207 151.875,144.026C151.875,145.573 152.456,146.079 155.979,147.626L157.606,148.325C160.545,149.598 161.594,150.84 161.594,153.125C161.594,156.377 158.999,158.696 155.364,158.696C153.582,158.696 152.188,158.231 150.718,157.071L149.785,158.811L149.093,158.811L149.094,158.811ZM183.122,145.455C185.172,145.455 186.333,145.805 187.225,146.693C188.116,147.587 188.621,149.25 188.621,151.105C188.621,154.976 186.683,157.146 183.239,157.146L181.846,157.146C179.793,157.146 179.446,156.834 179.446,155.131L179.446,145.452L183.122,145.455ZM179.443,133.725L182.734,133.725C185.986,133.725 187.417,135.315 187.417,138.913C187.417,140.693 186.992,141.973 186.141,142.976C185.289,143.947 184.245,144.253 182.079,144.253L179.446,144.253L179.446,133.724L179.443,133.724L179.443,133.725ZM190.861,138.835C190.861,136.822 190.011,135.044 188.539,133.918C187.225,132.951 185.717,132.527 183.197,132.527L173.017,132.527L173.017,133.494C175.806,133.65 176.191,133.959 176.191,136.049L176.191,154.822C176.191,156.913 175.879,157.181 173.017,157.417L173.017,158.348L182.81,158.348C185.673,158.348 187.224,157.997 188.851,156.991C190.785,155.753 192.062,153.391 192.062,150.957C192.062,148.862 191.171,146.967 189.662,145.81C188.851,145.191 187.998,144.838 186.603,144.57C189.393,143.52 190.861,141.545 190.861,138.835ZM198.381,147.352C198.77,142.901 200.24,140.62 202.719,140.62C205.233,140.62 206.512,142.787 206.742,147.352L198.381,147.352ZM203.416,157.494C199.893,157.494 198.342,154.784 198.305,148.745L209.842,148.745C209.764,142.784 207.324,139.609 202.756,139.609C198.111,139.609 195.207,143.365 195.207,149.327C195.207,155.288 198.111,158.771 203.103,158.771C206.896,158.771 209.374,156.408 209.877,152.422L208.328,152.422C207.867,155.712 206.164,157.494 203.416,157.494ZM211.889,141.195L211.889,140.54C214.135,140.228 215.451,139.921 216.997,139.378C217.193,140.272 217.31,141.275 217.385,142.746C218.78,140.654 220.365,139.728 222.612,139.728C224.936,139.728 226.946,140.923 227.723,142.822C228.112,143.753 228.305,144.835 228.305,146.304L228.305,155.595C228.305,157.261 228.692,157.57 231.051,157.685L231.051,158.46C229,158.265 228.227,158.228 226.833,158.228C225.398,158.228 224.626,158.265 222.611,158.46L222.611,157.685C224.701,157.611 225.205,157.222 225.205,155.674L225.205,146.189C225.205,142.822 224.199,141.465 221.723,141.465C219.088,141.465 217.696,143.132 217.696,146.304L217.696,155.674C217.696,157.222 218.202,157.611 220.216,157.685L220.216,158.46C218.202,158.265 217.429,158.228 216.034,158.228C214.679,158.228 213.864,158.265 211.852,158.46L211.852,157.685C214.211,157.57 214.6,157.261 214.6,155.595L214.6,143.056C214.561,141.465 214.329,141.236 212.395,141.236C212.275,141.236 212.084,141.195 211.889,141.195ZM232.555,158.348L243.045,141.082L238.283,141.082C235.769,141.082 235.146,141.622 233.754,145.107L232.983,145.107L233.874,140.075L247.19,140.075L236.66,157.34L241.187,157.34C243.822,157.34 244.904,156.297 246.066,152.772L246.879,152.772L245.874,158.348L232.555,158.348Z" style="fill:white;fill-rule:nonzero;"/>
            </g>
            <g transform="matrix(4.68077,0,0,4.68077,-109.68466,458.310588)">
                <path d="M178.357,96.382C183.514,87.807 186.232,77.984 186.218,67.978C186.218,37.481 161.494,12.759 130.998,12.759C100.501,12.759 75.779,37.482 75.779,67.978C75.765,77.984 78.484,87.807 83.642,96.382L83.441,96.543L83.681,96.45C93.346,112.476 110.919,123.197 130.998,123.197C151.078,123.197 168.649,112.476 178.313,96.45L178.553,96.543L178.357,96.382ZM179.434,67.978C179.443,76.434 177.226,84.745 173.006,92.072L138.846,64.559L131.84,19.567C158.199,20.017 179.434,41.511 179.434,67.978ZM82.568,67.978C82.568,41.512 103.801,20.018 130.16,19.567L123.154,64.559L88.994,92.072C84.775,84.744 82.559,76.433 82.568,67.978ZM131,116.41C113.814,116.41 98.729,107.45 90.133,93.955L131,78.145L171.867,93.956C163.27,107.45 148.188,116.41 131,116.41Z" style="fill:white;fill-rule:nonzero;"/>
            </g>
        </g>
    </g>
</svg>
