<?xml version="1.0" encoding="UTF-8" standalone="no"?>
<!DOCTYPE svg PUBLIC "-//W3C//DTD SVG 1.1//EN" "http://www.w3.org/Graphics/SVG/1.1/DTD/svg11.dtd">
<svg width="100%" height="100%" viewBox="0 0 1074 151" version="1.1" xmlns="http://www.w3.org/2000/svg" xmlns:xlink="http://www.w3.org/1999/xlink" xml:space="preserve" xmlns:serif="http://www.serif.com/" style="fill-rule:evenodd;clip-rule:evenodd;stroke-linejoin:round;stroke-miterlimit:2;">
    <g transform="matrix(1,0,0,1,-463,-487.314604)">
        <g transform="matrix(1.798694,0,0,1.798694,463,487.314604)">
            <g id="skoda">
                <path d="M0,83.6L11.1,65.9L75.3,65.9C78.9,65.9 81.3,63.5 81.3,59.9L81.3,49.6L26.1,49.6C9.7,49.6 2.4,42.4 2.4,26.3L2.4,19.3C2.4,7.3 9.5,0 20.7,0L22,0L22,25.9C22,29.5 24.4,31.9 28,31.9L81.4,31.9C93.6,31.9 100.8,39.2 100.8,51L100.8,60.2C100.8,75.8 93.1,83.6 77.1,83.6L0,83.6ZM384.5,65.6L434.1,65.6C442.3,65.6 447.5,60.5 447.5,52.6L447.5,31C447.5,23.1 442.3,18 434.1,18L384.5,18L384.5,65.6ZM364.6,83.6L364.6,0L434.6,0C455.5,0 467.5,12 467.5,31.9L467.5,51.7C467.5,71.6 455.5,83.6 434.6,83.6L364.6,83.6ZM268.1,65.6L310,65.6C317.6,65.6 322.5,60.9 322.5,53.4L322.5,30.2C322.5,22.8 317.6,18 310,18L268.1,18C260.5,18 255.6,22.7 255.6,30.2L255.6,53.4C255.6,60.9 260.5,65.6 268.1,65.6ZM310.4,83.6L267.6,83.6C247.4,83.6 235.7,71.9 235.7,52.5L235.7,31.2C235.7,11.8 247.4,0.1 267.6,0.1L310.4,0.1C330.6,0.1 342.3,11.8 342.3,31.2L342.3,52.5C342.4,71.9 330.7,83.6 310.4,83.6ZM475.6,83.6L522.5,0L550.2,0L597.1,83.6L574.4,83.6L566.3,69.2L526.3,69.2L515.6,52.1L497.9,83.5L475.6,83.5L475.6,83.6ZM516.1,51.2L556.2,51.2L536.1,15.6L516.1,51.2ZM41.6,17.4L30.2,0L98.9,0L87.9,17.4L41.6,17.4ZM122.8,83.6L122.8,0L142.7,0L142.7,32.6L169.1,32.6L203.4,0L229.8,0L186.2,41.6L230.6,83.6L202.6,83.6L168.3,50.6L142.7,50.6L142.7,83.6L122.8,83.6Z" style="fill:white;fill-rule:nonzero;"/>
            </g>
        </g>
    </g>
</svg>
