<?xml version="1.0" encoding="UTF-8" standalone="no"?>
<!DOCTYPE svg PUBLIC "-//W3C//DTD SVG 1.1//EN" "http://www.w3.org/Graphics/SVG/1.1/DTD/svg11.dtd">
<svg width="100%" height="100%" viewBox="0 0 1184 195" version="1.1" xmlns="http://www.w3.org/2000/svg" xmlns:xlink="http://www.w3.org/1999/xlink" xml:space="preserve" xmlns:serif="http://www.serif.com/" style="fill-rule:evenodd;clip-rule:evenodd;stroke-linejoin:round;stroke-miterlimit:2;">
    <g transform="matrix(1,0,0,1,-408,-465.10978)">
        <g id="toyota" transform="matrix(6.234171,0,0,6.234171,408,465.10978)">
            <path d="M22.477,29.654C19.962,28.079 18.11,22.643 18.11,16.185C18.11,15.948 18.111,15.714 18.117,15.481L18.12,15.484C11.126,14.385 6.072,11.373 5.943,7.812L5.922,7.853C4.21,9.98 3.233,12.439 3.233,15.059C3.233,22.769 11.696,29.086 22.431,29.645L22.477,29.654ZM0,15.622C0,6.995 10.736,0 23.98,0C37.224,0 47.96,6.995 47.96,15.622C47.96,24.249 37.224,31.244 23.98,31.244C10.736,31.244 0,24.249 0,15.622ZM23.98,2.254C26.537,2.254 28.711,6.132 29.517,11.544L29.52,11.536C34.494,10.762 37.977,8.975 37.977,6.897C37.977,4.107 31.71,1.849 23.98,1.849C16.25,1.849 9.983,4.108 9.983,6.897C9.983,8.975 13.465,10.761 18.44,11.536L18.443,11.544C19.249,6.133 21.424,2.254 23.98,2.254ZM25.528,29.645C36.263,29.086 44.727,22.769 44.727,15.059C44.727,12.439 43.749,9.98 42.038,7.853L42.017,7.812C41.888,11.373 36.835,14.385 29.84,15.484L29.843,15.481C29.848,15.714 29.85,15.948 29.85,16.185C29.85,22.643 27.996,28.079 25.483,29.654L25.528,29.645ZM23.98,11.946C25.126,11.946 26.239,11.897 27.304,11.803L27.303,11.804C26.773,8.335 25.485,5.887 23.98,5.887C22.475,5.887 21.188,8.335 20.657,11.804L20.656,11.803C21.721,11.897 22.834,11.946 23.98,11.946ZM23.98,24.792C25.905,24.792 27.475,20.786 27.559,15.762L27.569,15.765C25.181,15.985 22.779,15.985 20.391,15.765L20.402,15.762C20.485,20.787 22.055,24.792 23.98,24.792ZM122.362,15.622C122.362,9.028 127.708,3.683 134.301,3.683C140.897,3.683 146.242,9.029 146.242,15.622C146.242,22.217 140.896,27.561 134.301,27.561C127.708,27.561 122.362,22.216 122.362,15.622ZM134.301,23.183C137.984,23.183 140.969,19.797 140.969,15.621C140.969,11.446 137.984,8.059 134.301,8.059C130.62,8.059 127.636,11.445 127.636,15.621C127.636,19.797 130.621,23.183 134.301,23.183ZM159.79,8.656L159.79,27.019L154.76,27.019L154.76,8.657L154.777,8.657L147.742,8.657L147.742,4.505L166.808,4.505L166.808,8.656L159.79,8.656ZM172.893,21.954L172.888,21.959L170.958,27.02L165.083,27.02L174.371,4.506L180.632,4.506L189.921,27.02L184.045,27.02L182.115,21.959L182.11,21.954L172.893,21.954ZM174.335,18.154L180.668,18.154L180.666,18.155L177.524,9.915L177.48,9.915L174.336,18.155L174.335,18.154ZM67.057,8.656L67.057,27.019L62.026,27.019L62.026,8.657L62.043,8.657L55.007,8.657L55.007,4.505L74.074,4.505L74.074,8.656L67.057,8.656ZM75.362,15.622C75.362,9.028 80.708,3.683 87.303,3.683C93.897,3.683 99.243,9.029 99.243,15.622C99.243,22.217 93.897,27.561 87.303,27.561C80.708,27.561 75.362,22.216 75.362,15.622ZM87.303,23.183C90.984,23.183 93.97,19.797 93.97,15.621C93.97,11.446 90.985,8.059 87.303,8.059C83.621,8.059 80.636,11.445 80.636,15.621C80.636,19.797 83.621,23.183 87.303,23.183ZM110.802,27.019L113.353,27.019L113.353,18.47L122.129,4.505L116.255,4.505L110.802,13.968L105.35,4.505L99.474,4.505L108.251,18.47L108.251,27.018L110.802,27.018L110.802,27.019Z" style="fill:white;fill-rule:nonzero;"/>
        </g>
    </g>
</svg>
