<?xml version="1.0" encoding="UTF-8" standalone="no"?>
<!DOCTYPE svg PUBLIC "-//W3C//DTD SVG 1.1//EN" "http://www.w3.org/Graphics/SVG/1.1/DTD/svg11.dtd">
<svg width="100%" height="100%" viewBox="0 0 500 500" version="1.1" xmlns="http://www.w3.org/2000/svg" xmlns:xlink="http://www.w3.org/1999/xlink" xml:space="preserve" xmlns:serif="http://www.serif.com/" style="fill-rule:evenodd;clip-rule:evenodd;stroke-linejoin:round;stroke-miterlimit:2;">
    <rect id="Artboard1" x="0" y="0" width="500" height="500" style="fill:none;"/>
    <g id="Artboard11" serif:id="Artboard1">
        <g id="_3dsmax_icon" serif:id="3dsmax_icon" transform="matrix(1,0,0,1,48,48)">
            <path d="M75.243,30.102C76.843,29.66 76.837,29.707 297.5,29.707C346.913,29.707 351.145,28.178 358.384,38.578C365.818,49.26 359.611,82.291 362.543,91.419C360.763,100.979 363.191,307.726 361.202,309.06C359.775,310.017 81.582,308.878 74.616,309.655C75.853,307.247 74.919,307.057 74.974,277.502C75.01,257.71 74.855,257.764 75.243,30.102Z" style="fill:rgb(56,164,203);"/>
            <path d="M362.543,91.419C366.81,92.354 376.34,91.661 387.475,91.859C390.566,91.914 389.52,101.027 389.52,101.5C389.522,372.837 389.534,372.866 389.265,373.384C388.737,374.404 388.323,374.293 189.5,374.293C63.08,374.293 62.772,374.598 57.709,372.058C45.685,366.025 47.361,357.942 47.62,327.481C49.135,324.84 49.537,325.125 74.616,309.655C81.582,308.878 359.775,310.017 361.202,309.06C363.191,307.726 360.763,100.979 362.543,91.419Z" style="fill:rgb(53,103,126);"/>
            <path d="M75.243,30.102C74.855,257.764 75.01,257.71 74.974,277.502C74.919,307.057 75.853,307.247 74.616,309.655C49.537,325.125 49.135,324.84 47.62,327.481C45.205,326.403 45.095,327.641 44.301,328.122C15.936,345.302 15.756,345.031 15.357,344.984C14.868,344.927 14.375,344.76 14.482,321.5C14.795,253.312 14.084,68.13 14.886,66.687C15.831,64.986 67.621,34.048 75.243,30.102Z" style="fill:rgb(126,196,221);"/>
            <path d="M211.525,115.915C190.74,119.236 197.249,133.256 192.5,133.5C190.333,133.612 160.262,133.805 159.475,133.688C153.263,132.767 164.307,85.049 222.465,88.948C250.949,90.857 269.855,107.161 270.157,126.513C270.333,137.767 271.809,149.758 252.323,160.175C248.261,162.347 239.575,163.547 247.334,164.986C248.05,165.119 275.433,171.644 276.077,196.51C276.508,213.163 277.269,233.82 243.573,246.684C225.489,253.588 174.036,255.917 159.703,220.419C153.862,205.953 157.276,205.29 158.49,205.281C189.02,205.07 189.038,204.54 191.473,205.558C192.708,206.075 194.264,226.117 220.442,223.111C241.428,220.701 241.402,192.519 231.406,184.615C218.242,174.206 198.074,182.228 197.821,176.48C196.824,153.762 197.643,152.882 199.539,152.828C214.517,152.402 234.736,155.931 231.841,128.458C231.234,122.7 227.326,119.769 227.297,119.744C222.721,115.848 212.823,115.908 211.525,115.915Z" style="fill:rgb(254,254,254);"/>
        </g>
    </g>
</svg>
