<?xml version="1.0" encoding="UTF-8" standalone="no"?>
<!DOCTYPE svg PUBLIC "-//W3C//DTD SVG 1.1//EN" "http://www.w3.org/Graphics/SVG/1.1/DTD/svg11.dtd">
<svg width="100%" height="100%" viewBox="0 0 500 500" version="1.1" xmlns="http://www.w3.org/2000/svg" xmlns:xlink="http://www.w3.org/1999/xlink" xml:space="preserve" xmlns:serif="http://www.serif.com/" style="fill-rule:evenodd;clip-rule:evenodd;stroke-linejoin:round;stroke-miterlimit:2;">
    <rect id="Artboard1" x="0" y="0" width="500" height="500" style="fill:none;"/>
    <g id="Artboard11" serif:id="Artboard1">
        <g transform="matrix(0.126326,0,0,0.126326,262,250)">
            <g transform="matrix(1,0,0,1,-1129.5,-1250)">
                <clipPath id="_clip1">
                    <rect x="0" y="0" width="2259" height="2500"/>
                </clipPath>
                <g clip-path="url(#_clip1)">
                    <g transform="matrix(18.338395,0,0,18.338395,0.221653,0)">
                        <path d="M105.165,3.116L112.645,3.116L112.41,4.44L111.008,4.44C110.307,4.44 109.84,4.285 109.84,4.285L109.84,6.7C109.84,7.556 109.606,8.414 109.606,9.27C109.606,10.127 109.372,10.984 109.372,11.452L107.503,11.452L107.503,9.27C107.503,8.414 107.737,7.556 107.737,6.7C107.737,5.765 107.969,4.675 107.969,4.285L106.099,4.285C105.632,4.285 105.165,4.44 105.165,4.44L105.165,3.116ZM113.578,3.116L116.148,3.116C116.148,3.583 116.382,4.051 116.382,4.284C116.382,4.674 116.849,5.374 117.083,6.231C117.083,6.465 117.317,7.088 117.317,7.555C117.549,8.412 118.018,9.269 118.018,9.269C118.018,8.802 118.485,8.179 118.719,7.322C118.951,6.699 119.42,5.764 119.653,5.141C119.887,4.439 120.354,3.583 120.354,3.116L123.159,3.116L123.159,5.764C123.159,6.699 122.925,7.945 122.925,8.802L122.925,11.451L121.056,11.451L121.056,7.555C121.056,6.854 121.29,6.231 121.29,5.763L121.29,4.908L118.72,11.452L116.849,11.452C116.849,10.984 116.382,10.128 116.382,9.504C116.148,8.414 115.681,7.556 115.681,7.323C115.681,6.856 115.214,5.999 114.98,5.142L114.98,7.323C114.98,7.946 114.746,8.803 114.746,9.504L114.746,11.452L112.877,11.452C112.877,10.595 113.111,9.504 113.111,8.57C113.111,7.791 113.343,6.7 113.343,5.765C113.344,4.908 113.578,4.051 113.578,3.116ZM23.682,135.779L18.696,135.779L16.749,128.769L7.556,128.769L5.609,135.779L0.779,135.779L9.27,104.775L14.723,104.775L23.682,135.779ZM15.346,123.705L12.075,112.021L9.036,123.705L15.346,123.705ZM41.599,135.779L37.392,135.779L37.392,132.586C36.691,133.988 35.756,134.924 34.899,135.313C34.043,135.78 33.107,136.327 32.172,136.327C30.458,136.327 28.745,135.157 27.498,133.21C26.096,131.419 25.473,128.304 25.473,124.642C25.473,120.904 26.097,117.63 27.265,115.683C28.511,113.814 30.303,112.646 32.407,112.646C34.043,112.646 35.757,113.814 37.236,115.917L37.236,104.776L41.599,104.776L41.599,135.779ZM29.758,124.096C29.758,126.432 30.07,128.535 30.459,129.471C31.161,130.873 32.173,131.807 33.342,131.807C34.432,131.807 35.289,131.106 35.99,130.25C36.691,129.08 37.236,127.133 37.236,124.797C37.236,122.303 36.847,120.201 36.146,119.031C35.522,117.863 34.432,117.084 33.342,117.084C32.407,117.084 31.55,117.863 30.771,118.799C30.069,119.967 29.758,121.758 29.758,124.096ZM45.182,124.096C45.182,122.303 45.415,120.356 46.117,118.565C46.896,116.696 47.909,115.294 49.155,114.358C50.479,113.346 52.115,112.645 53.674,112.645C56.089,112.645 58.348,113.813 59.828,115.916C61.464,118.252 62.321,121.369 62.321,124.641C62.321,127.913 61.464,130.873 59.828,132.977C58.114,135.157 56.089,136.327 53.674,136.327C52.194,136.327 50.714,135.78 49.312,134.925C47.91,133.989 46.897,132.587 46.118,130.874C45.417,129.081 45.183,126.745 45.183,124.407L45.183,124.096L45.182,124.096ZM49.544,124.641C49.544,126.979 49.778,128.77 50.479,129.938C51.258,131.106 52.427,131.807 53.518,131.807C54.53,131.807 55.699,131.106 56.4,129.938C57.179,128.77 57.646,126.979 57.646,124.641C57.646,122.303 57.179,120.356 56.4,119.188C55.699,117.864 54.53,117.084 53.518,117.084C52.427,117.084 51.337,117.863 50.713,119.031C50.012,120.355 49.544,122.303 49.544,124.641ZM65.748,135.779L65.748,104.775L70.109,104.775L70.109,115.916C71.357,113.812 73.148,112.645 74.861,112.645C76.886,112.645 78.601,113.813 79.925,115.682C81.249,117.629 82.029,120.59 82.029,124.407C82.029,128.147 81.25,131.419 79.925,133.21C78.523,135.157 76.81,136.327 75.095,136.327C74.161,136.327 73.148,135.78 72.29,135.313C71.356,134.924 70.499,133.756 70.03,132.586L70.03,135.779L65.748,135.779ZM70.109,124.096C70.109,126.432 70.5,128.535 70.888,129.471C71.589,130.873 72.759,131.807 74.005,131.807C75.095,131.807 75.952,131.106 76.575,130.25C77.276,129.314 77.665,127.133 77.665,124.797C77.665,122.303 77.276,120.201 76.575,119.031C75.952,117.863 74.86,117.084 73.77,117.084C72.758,117.084 71.901,117.863 71.2,118.799C70.5,119.967 70.109,121.758 70.109,124.096ZM95.271,128.77L99.634,129.471C99.165,131.807 98.075,133.756 96.986,134.612C95.74,135.548 94.025,136.327 92.234,136.327C89.586,136.327 87.248,134.925 85.923,132.587C84.833,130.64 84.364,127.913 84.364,124.798C84.364,121.136 84.987,118.021 86.389,115.917C87.791,113.813 89.817,112.646 91.998,112.646C94.412,112.646 96.361,113.814 97.686,115.917C99.165,118.253 100.022,121.759 100.022,126.2L88.729,126.2C88.729,128.147 88.963,129.471 89.743,130.483C90.442,131.419 91.3,131.807 92.235,131.807C93.014,131.807 93.715,131.653 94.026,131.106C94.414,130.639 94.883,129.705 95.271,128.77ZM95.662,122.537C95.662,120.902 95.039,119.422 94.57,118.564C93.947,117.628 93.013,117.084 92.156,117.084C91.142,117.084 90.209,117.863 89.742,118.799C88.963,119.733 88.728,121.135 88.728,122.537L95.662,122.537Z"/>
                        <path d="M0,0L37.392,0L0,91.066L0,0ZM62.865,0L100.724,0L100.724,89.896L62.865,0ZM50.557,34.821L71.201,89.43L58.425,89.43L49.622,72.137L35.6,72.137L50.557,34.821Z" style="fill:rgb(204,34,41);"/>
                    </g>
                </g>
            </g>
        </g>
    </g>
</svg>
