<?xml version="1.0" encoding="UTF-8" standalone="no"?>
<!DOCTYPE svg PUBLIC "-//W3C//DTD SVG 1.1//EN" "http://www.w3.org/Graphics/SVG/1.1/DTD/svg11.dtd">
<svg width="100%" height="100%" viewBox="0 0 500 500" version="1.1" xmlns="http://www.w3.org/2000/svg" xmlns:xlink="http://www.w3.org/1999/xlink" xml:space="preserve" xmlns:serif="http://www.serif.com/" style="fill-rule:evenodd;clip-rule:evenodd;stroke-linejoin:round;stroke-miterlimit:2;">
    <rect id="Artboard1" x="0" y="0" width="500" height="500" style="fill:none;"/>
    <g id="Artboard11" serif:id="Artboard1">
        <g id="Maya_Icon">
            <g id="maya.png" transform="matrix(1,0,0,1,48,48)">
                <path d="M75.379,31.265C78.512,30.784 78.521,30.834 291.5,30.834C348.572,30.834 350.85,29.377 358.344,39.612C365.844,49.857 359.847,83.997 362.554,93.416C360.863,105.142 361.999,105.173 361.998,241.5C361.997,309.456 362.218,310.414 360.537,310.66C356.697,311.222 98.481,310.869 75.694,310.838C75.332,286.677 75.611,35.665 75.502,34.5C75.478,34.242 75.342,32.79 75.379,31.265Z" style="fill:rgb(55,165,204);"/>
                <path d="M362.554,93.416C368.57,94.973 387.931,92.746 389.165,94.708C389.892,95.866 389.379,371.205 389.368,371.481C389.301,373.158 386.764,373.165 386.498,373.166C283.499,373.166 180.499,373.166 77.5,373.166C45.337,373.166 47.089,362.198 47.58,328.491C49.589,325.806 49.839,326.115 60.249,320.061C68.054,315.522 67.719,315.064 75.694,310.838C98.481,310.869 356.697,311.222 360.537,310.66C362.218,310.414 361.997,309.456 361.998,241.5C361.999,105.173 360.863,105.142 362.554,93.416Z" style="fill:rgb(53,105,127);"/>
                <path d="M219.194,215.209C221.536,204.17 238.415,142.353 242.621,125.529C250.423,94.32 250.777,93.31 253.498,93.298C294.029,93.108 294.008,93.007 297.479,93.586C299.094,93.856 298.862,94.729 298.862,167.5C298.862,247.473 299.047,248.208 297.55,248.653C297.042,248.804 263.549,248.973 262.473,248.557C261.306,248.105 261.415,247.579 261.421,173.5C261.423,161.047 261.491,161.124 262.087,154.544C262.101,154.383 261.707,149.274 260.105,154.157C257.957,160.702 259.337,161.062 238.682,237.555C236.059,247.267 236.005,248.73 233.511,248.769C230.868,248.81 203.198,249.237 200.461,248.734C197.96,248.273 198.516,247.219 190.958,218.39C189.573,213.107 174.806,156.778 173.857,152.295C170.971,138.662 171.989,155.944 171.989,172.5C171.989,247.534 172.077,247.751 171.373,248.337C170.584,248.993 139.739,249.197 138.781,248.216C138.187,247.606 138.24,247.451 138.242,113.5C138.242,94.724 137.805,93.358 140.486,93.308C144.224,93.238 185.667,92.464 187.209,93.834C187.799,94.359 187.633,94.492 198.948,139.381C199.688,142.316 215.036,201.685 217.683,214.397C217.894,215.407 218.164,215.194 219.194,215.209Z" style="fill:rgb(254,254,254);"/>
                <path d="M75.379,31.265C75.342,32.79 75.478,34.242 75.502,34.5C75.611,35.665 75.332,286.677 75.694,310.838C67.719,315.064 68.054,315.522 60.249,320.061C49.839,326.115 49.589,325.806 47.58,328.491C46.686,328.545 46.631,327.765 45.53,328.615C44.778,329.195 44.791,329.128 41.751,330.928C24.349,341.228 15.829,347.346 14.741,346.279C14.262,345.81 14.158,68.976 14.798,67.664C15.275,66.687 69.386,33.956 75.379,31.265Z" style="fill:rgb(125,198,221);"/>
            </g>
        </g>
    </g>
</svg>
