<?xml version="1.0" encoding="UTF-8" standalone="no"?>
<!DOCTYPE svg PUBLIC "-//W3C//DTD SVG 1.1//EN" "http://www.w3.org/Graphics/SVG/1.1/DTD/svg11.dtd">
<svg width="100%" height="100%" viewBox="0 0 500 500" version="1.1" xmlns="http://www.w3.org/2000/svg" xmlns:xlink="http://www.w3.org/1999/xlink" xml:space="preserve" xmlns:serif="http://www.serif.com/" style="fill-rule:evenodd;clip-rule:evenodd;stroke-linejoin:round;stroke-miterlimit:2;">
    <rect id="Artboard1" x="0" y="0" width="500" height="500" style="fill:none;"/>
    <g id="Artboard11" serif:id="Artboard1">
        <g id="v-ray-logo-png_seeklogo-411793.png" transform="matrix(1,0,0,1,56,56)">
            <path d="M21.051,164.5L21.051,47.5C21.051,22.768 20.386,21.061 23.507,20.982C50.298,20.307 50.291,21.03 358.5,21.051C364.188,21.051 367.027,18.8 366.949,24.499C366.684,43.927 367.523,365.459 366.491,366.491C365.725,367.256 22.271,367.252 21.509,366.491C20.995,365.976 21.051,365.833 21.051,164.5Z" style="fill:rgb(40,87,175);"/>
            <path d="M308.93,194.501C304.865,314.875 157.801,347.415 97.84,257.272C57.007,195.885 93.41,128.864 100.51,129.372C107.392,129.865 98.116,151.354 116.375,202.543C123.333,222.049 150.575,278.887 177.416,267.286C221.934,248.045 220.23,130.425 275.52,133.211C309.507,134.923 308.83,188.738 308.93,194.501Z" style="fill:rgb(254,254,254);"/>
            <path d="M187.481,79.088C198.754,78.546 231.029,77.501 264.29,102.777C272.334,108.89 252.879,106.046 230.919,124C192.65,155.287 183.017,258.2 162.972,232.117C131.152,190.711 126.694,122.94 133.234,107.391C142.736,84.799 163.552,81.078 187.481,79.088Z" style="fill:rgb(254,254,254);"/>
        </g>
    </g>
</svg>
